# xmcd
#
# Track frame offsets:
#	150
#	20187
#	35769
#	55206
#	69698
#	86419
#	106061
#	135928
#	152528
#	167949
#	192183
#
# Disc length: 2755 seconds
#
# Revision: 0
# Processed by: cddbd v1.4PL0 Copyright (c) Steve Scherf et al.
# Submitted via: MusicWizard 6.0.0
#
DISCID=8e0ac10b
DTITLE=Tom Pacheco - Eagle In The Rain
DYEAR=1989
DGENRE=Country
TTITLE0=Robert and Ramona
TTITLE1=She Always Thought He'd Come Back
TTITLE2=Made in America
TTITLE3=All Because Of You
TTITLE4=The Last Blue Whale In The Ocean
TTITLE5=You Will Not Be Forgotten
TTITLE6=Midnight At The Hot Club
TTITLE7=Jesus In A Leather Jacket
TTITLE8=All I Can Look At Is You
TTITLE9=Donna Marie
TTITLE10=Just A Little Bullet
EXTD=(c)1989 Ringsend Road Music Group\nupc 5099330000922
EXTT0=
EXTT1=
EXTT2=
EXTT3=
EXTT4=
EXTT5=
EXTT6=
EXTT7=
EXTT8=
EXTT9=
EXTT10=
PLAYORDER=
